
<svg xmlns="http://www.w3.org/2000/svg" version="1.1" xmlns:xlink="http://www.w3.org/1999/xlink" preserveAspectRatio="none" x="0px" y="0px" width="1200px" height="550px" viewBox="0 0 1200 550">
<defs>
<g id="Layer0_0_FILL">
<path fill="#1E1E1E" stroke="none" d="
M 655.2 499.9
Q 655.2 499.65 655.05 499.5 654.9 499.35 654.7 499.35
L 651.2 499.35
Q 651.05 499.35 650.85 499.5 650.7 499.65 650.7 499.9
L 650.7 508.6 643.85 508.6 643.85 499.95
Q 643.85 499.7 643.65 499.6 643.45 499.45 643.25 499.45
L 639.9 499.45
Q 639.7 499.45 639.5 499.6 639.35 499.7 639.35 499.95
L 639.35 521.1
Q 639.35 522.7 640 523.35 640.65 523.9 642.45 523.9
L 652.15 523.9
Q 653.9 523.9 654.55 523.25 655.2 522.55 655.2 521.25
L 655.2 499.9
M 650.7 512.25
L 650.7 519.55
Q 650.7 520.25 649.95 520.25
L 644.6 520.25
Q 643.85 520.25 643.85 519.55
L 643.85 512.25 650.7 512.25
M 671.45 497.5
Q 671.45 496.95 670.9 496.95
L 667.45 496.95
Q 666.9 496.95 666.9 497.5
L 666.9 511.7 663.2 511.7 663.2 498.2
Q 663.2 497.7 662.65 497.7
L 659.4 497.7
Q 658.85 497.7 658.85 498.2
L 658.85 532.9
Q 658.85 533.45 659.4 533.45
L 662.65 533.45
Q 663.2 533.45 663.2 532.9
L 663.2 515.5 666.9 515.5 666.9 534.4
Q 666.9 534.95 667.45 534.95
L 670.9 534.95
Q 671.45 534.95 671.45 534.4
L 671.45 497.5
M 829.65 392.8
Q 829.5 392.95 829.5 393.15
L 829.5 396.3
Q 829.5 396.55 829.65 396.65 829.8 396.8 830 396.8
L 851.1 396.8
Q 851.3 396.8 851.45 396.65 851.6 396.55 851.6 396.3
L 851.6 393.15
Q 851.6 392.95 851.45 392.8 851.3 392.7 851.1 392.7
L 830 392.7
Q 829.8 392.7 829.65 392.8
M 829.65 388.35
Q 829.8 388.5 830 388.5
L 851.1 388.5
Q 851.3 388.5 851.45 388.35 851.6 388.2 851.6 388
L 851.6 384.85
Q 851.6 384.65 851.45 384.5 851.3 384.35 851.1 384.35
L 830 384.35
Q 829.8 384.35 829.65 384.5 829.5 384.65 829.5 384.85
L 829.5 388
Q 829.5 388.2 829.65 388.35
M 807.8 375.75
Q 806.25 375.1 804.2 375.1 801 375.1 799.05 376.55 797.1 378.05 796 380.3 794.9 382.6 794.5 385.3 794.15 388.05 794.15 390.5 794.15 397.85 796.6 401.9 799.05 405.95 804.2 405.95 806.75 405.95 808.6 404.95 810.45 403.85 811.7 401.9 812.95 399.95 813.55 397.05 814.15 394.15 814.15 390.5 814.15 388.85 813.95 387.1 813.8 385.3 813.4 383.6 813 381.9 812.3 380.35 811.6 378.8 810.45 377.6 809.4 376.45 807.8 375.75
M 801.9 380.05
Q 802.9 379.45 804.2 379.45 805.4 379.45 806.45 380.05 807.45 380.6 808.2 381.9 808.9 383.25 809.3 385.35 809.65 387.5 809.65 390.5 809.65 393.6 809.3 395.75 808.9 397.85 808.2 399.15 807.45 400.5 806.45 401.05 805.4 401.65 804.2 401.65 802.9 401.65 801.9 401.05 800.9 400.5 800.2 399.15 799.45 397.85 799.1 395.75 798.7 393.6 798.7 390.5 798.7 387.5 799.1 385.35 799.45 383.25 800.2 381.9 800.9 380.6 801.9 380.05
M 781.95 380.45
Q 783.15 381.7 783.15 383.6 783.15 385.3 781.55 387.9 779.95 390.55 776.6 394.5
L 770.5 401.75
Q 770.3 402.05 770.1 402.35 769.95 402.7 769.95 403
L 769.95 405.3
Q 769.95 405.8 770.7 405.8
L 787.75 405.8
Q 788.3 405.8 788.3 405.1
L 788.3 402.3
Q 788.3 401.7 787.75 401.7
L 776 401.7
Q 777 400.55 778 399.4 779 398.2 779.85 397.1 780.95 395.8 782.35 394.2 783.7 392.55 784.9 390.8 786.1 389 786.9 387.15 787.7 385.3 787.7 383.5 787.7 381.4 787 379.8 786.3 378.2 785.15 377.15 784 376.1 782.35 375.55 780.75 375 778.8 375 776.95 375 774.95 375.65 773 376.3 771.5 377.1 771.1 377.3 770.95 377.55 770.85 377.7 770.95 377.9
L 771.5 380.95
Q 771.6 381.3 771.9 381.35 772.2 381.35 772.55 381.15 774.35 380.1 775.85 379.65 777.4 379.2 779.05 379.2 780.8 379.2 781.95 380.45
M 734.8 383.95
L 742.05 391.1 734.5 398.65
Q 734.3 398.85 734.3 399.15 734.3 399.4 734.5 399.6
L 736.2 401.3
Q 736.5 401.8 737.1 401.3
L 744.65 393.8 752.1 401.3
Q 752.3 401.45 752.6 401.45 752.85 401.45 753.05 401.3
L 754.7 399.5
Q 754.95 399.3 754.95 399.1 754.95 398.85 754.7 398.65
L 747.25 391.15 754.5 383.85
Q 754.7 383.7 754.7 383.4 754.7 383.1 754.5 382.9
L 752.9 381.2
Q 752.7 381 752.45 381 752.2 381 752 381.2
L 744.7 388.45 737.45 381.3
Q 737 380.85 736.5 381.3
L 734.8 383.05
Q 734.6 383.3 734.6 383.5 734.6 383.75 734.8 383.95
M 702.7 381.25
Q 702.5 381.45 702.5 381.65 702.45 381.9 702.6 382.05
L 704.4 384.2
Q 704.55 384.35 704.8 384.3 705.05 384.3 705.3 384.15
L 708.25 381.55 708.25 405.25
Q 708.25 405.75 708.8 405.75
L 712 405.75
Q 712.5 405.75 712.5 405.25
L 712.5 376.45
Q 712.5 375.65 712.35 375.5 712.25 375.35 711.55 375.35
L 709.45 375.35
Q 709.3 375.35 709.1 375.45 708.9 375.5 708.85 375.6
L 702.7 381.25
M 687.85 375.35
Q 687.45 375.35 687.35 375.45 687.25 375.55 687.05 375.9
L 674.65 394.5
Q 674.5 394.65 674.35 394.95 674.15 395.25 674.15 395.5
L 674.15 398.5
Q 674.15 398.8 674.3 398.85 674.45 398.95 674.8 398.95
L 687.6 398.95 687.6 405.05
Q 687.6 405.45 687.75 405.6 687.9 405.75 688.35 405.75
L 691.25 405.75
Q 691.65 405.75 691.75 405.6 691.9 405.5 691.9 405.05
L 691.9 398.95 695.6 398.95
Q 695.95 398.95 696.1 398.85 696.25 398.75 696.25 398.35
L 696.25 395.45
Q 696.25 395.05 696.1 394.95 695.95 394.85 695.6 394.85
L 691.9 394.85 691.9 375.95
Q 691.9 375.6 691.85 375.5 691.8 375.35 691.5 375.35
L 687.85 375.35
M 679 394.85
L 687.6 381.8 687.6 394.85 679 394.85
M 668.2 379.8
Q 667.5 378.2 666.35 377.15 665.2 376.1 663.55 375.55 661.95 375 660 375 658.15 375 656.15 375.65 654.2 376.3 652.7 377.1 652.3 377.3 652.15 377.55 652.05 377.7 652.15 377.9
L 652.7 380.95
Q 652.8 381.3 653.1 381.35 653.4 381.35 653.75 381.15 655.55 380.1 657.05 379.65 658.6 379.2 660.25 379.2 662 379.2 663.15 380.45 664.35 381.7 664.35 383.6 664.35 385.3 662.75 387.9 661.15 390.55 657.8 394.5
L 651.7 401.75
Q 651.5 402.05 651.3 402.35 651.15 402.7 651.15 403
L 651.15 405.3
Q 651.15 405.8 651.9 405.8
L 668.95 405.8
Q 669.5 405.8 669.5 405.1
L 669.5 402.3
Q 669.5 401.7 668.95 401.7
L 657.2 401.7
Q 658.2 400.55 659.2 399.4 660.2 398.2 661.05 397.1 662.15 395.8 663.55 394.2 664.9 392.55 666.1 390.8 667.3 389 668.1 387.15 668.9 385.3 668.9 383.5 668.9 381.4 668.2 379.8
M 349.5 384.35
Q 349.3 384.35 349.15 384.5 349 384.65 349 384.85
L 349 388
Q 349 388.2 349.15 388.35 349.3 388.5 349.5 388.5
L 370.6 388.5
Q 370.8 388.5 370.95 388.35 371.1 388.2 371.1 388
L 371.1 384.85
Q 371.1 384.65 370.95 384.5 370.8 384.35 370.6 384.35
L 349.5 384.35
M 349.5 392.7
Q 349.3 392.7 349.15 392.8 349 392.95 349 393.15
L 349 396.3
Q 349 396.55 349.15 396.65 349.3 396.8 349.5 396.8
L 370.6 396.8
Q 370.8 396.8 370.95 396.65 371.1 396.55 371.1 396.3
L 371.1 393.15
Q 371.1 392.95 370.95 392.8 370.8 392.7 370.6 392.7
L 349.5 392.7
M 326.1 394.2
Q 327.45 392.55 328.65 390.8 329.85 389 330.65 387.15 331.45 385.3 331.45 383.5 331.45 381.4 330.75 379.8 330.05 378.2 328.9 377.15 327.75 376.1 326.1 375.55 324.5 375 322.55 375 320.7 375 318.7 375.65 316.75 376.3 315.25 377.1 314.85 377.3 314.7 377.55 314.6 377.7 314.7 377.9
L 315.25 380.95
Q 315.35 381.3 315.65 381.35 315.95 381.35 316.3 381.15 318.1 380.1 319.6 379.65 321.15 379.2 322.8 379.2 324.55 379.2 325.7 380.45 326.9 381.7 326.9 383.6 326.9 385.3 325.3 387.9 323.7 390.55 320.35 394.5
L 314.25 401.75
Q 314.05 402.05 313.85 402.35 313.7 402.7 313.7 403
L 313.7 405.3
Q 313.7 405.8 314.45 405.8
L 331.5 405.8
Q 332.05 405.8 332.05 405.1
L 332.05 402.3
Q 332.05 401.7 331.5 401.7
L 319.75 401.7
Q 320.75 400.55 321.75 399.4 322.75 398.2 323.6 397.1 324.7 395.8 326.1 394.2
M 281.2 381.3
Q 280.75 380.85 280.25 381.3
L 278.55 383.05
Q 278.35 383.3 278.35 383.5 278.35 383.75 278.55 383.95
L 285.8 391.1 278.25 398.65
Q 278.05 398.85 278.05 399.15 278.05 399.4 278.25 399.6
L 279.95 401.3
Q 280.25 401.8 280.85 401.3
L 288.4 393.8 295.85 401.3
Q 296.05 401.45 296.35 401.45 296.6 401.45 296.8 401.3
L 298.45 399.5
Q 298.7 399.3 298.7 399.1 298.7 398.85 298.45 398.65
L 291 391.15 298.25 383.85
Q 298.45 383.7 298.45 383.4 298.45 383.1 298.25 382.9
L 296.65 381.2
Q 296.45 381 296.2 381 295.95 381 295.75 381.2
L 288.45 388.45 281.2 381.3
M 256.25 376.45
Q 256.25 375.65 256.1 375.5 256 375.35 255.3 375.35
L 253.2 375.35
Q 253.05 375.35 252.85 375.45 252.65 375.5 252.6 375.6
L 246.45 381.25
Q 246.25 381.45 246.25 381.65 246.2 381.9 246.35 382.05
L 248.15 384.2
Q 248.3 384.35 248.55 384.3 248.8 384.3 249.05 384.15
L 252 381.55 252 405.25
Q 252 405.75 252.55 405.75
L 255.75 405.75
Q 256.25 405.75 256.25 405.25
L 256.25 376.45
M 218.4 394.5
Q 218.25 394.65 218.1 394.95 217.9 395.25 217.9 395.5
L 217.9 398.5
Q 217.9 398.8 218.05 398.85 218.2 398.95 218.55 398.95
L 231.35 398.95 231.35 405.05
Q 231.35 405.45 231.5 405.6 231.65 405.75 232.1 405.75
L 235 405.75
Q 235.4 405.75 235.5 405.6 235.65 405.5 235.65 405.05
L 235.65 398.95 239.35 398.95
Q 239.7 398.95 239.85 398.85 240 398.75 240 398.35
L 240 395.45
Q 240 395.05 239.85 394.95 239.7 394.85 239.35 394.85
L 235.65 394.85 235.65 375.95
Q 235.65 375.6 235.6 375.5 235.55 375.35 235.25 375.35
L 231.6 375.35
Q 231.2 375.35 231.1 375.45 231 375.55 230.8 375.9
L 218.4 394.5
M 231.35 394.85
L 222.75 394.85 231.35 381.8 231.35 394.85
M 199.9 375.65
Q 197.95 376.3 196.45 377.1 196.05 377.3 195.9 377.55 195.8 377.7 195.9 377.9
L 196.45 380.95
Q 196.55 381.3 196.85 381.35 197.15 381.35 197.5 381.15 199.3 380.1 200.8 379.65 202.35 379.2 204 379.2 205.75 379.2 206.9 380.45 208.1 381.7 208.1 383.6 208.1 385.3 206.5 387.9 204.9 390.55 201.55 394.5
L 195.45 401.75
Q 195.25 402.05 195.05 402.35 194.9 402.7 194.9 403
L 194.9 405.3
Q 194.9 405.8 195.65 405.8
L 212.7 405.8
Q 213.25 405.8 213.25 405.1
L 213.25 402.3
Q 213.25 401.7 212.7 401.7
L 200.95 401.7
Q 201.95 400.55 202.95 399.4 203.95 398.2 204.8 397.1 205.9 395.8 207.3 394.2 208.65 392.55 209.85 390.8 211.05 389 211.85 387.15 212.65 385.3 212.65 383.5 212.65 381.4 211.95 379.8 211.25 378.2 210.1 377.15 208.95 376.1 207.3 375.55 205.7 375 203.75 375 201.9 375 199.9 375.65 Z"/>
</g>

<g id="gnff56869_0_Layer2_0_FILL">
<path fill="#FAD4DA" stroke="none" d="
M 342 333.05
Q 331.65 333.05 324.3 340.35 317 347.7 317 358.05
L 317 546
Q 317 556.35 324.3 563.65 331.65 571 342 571
L 392 571
Q 402.35 571 409.65 563.65 417 556.35 417 546
L 417 358.05
Q 417 347.7 409.65 340.35 402.35 333.05 392 333.05
L 342 333.05 Z"/>
</g>

<g id="gfnf56588_0_Layer1_0_FILL">
<path fill="#FFFFFF" stroke="none" d="
M 165.55 191.6
Q 164.8 190.85 163.1 190.4 161.55 189.95 160.05 190.5 158.6 191.05 158.15 192.15 157.9 192.8 158 194.9 158.1 196.7 157.55 197 156.8 197.45 156.35 197 155.9 196.5 156.3 195.45 156.75 194.15 156.2 192.95 155.5 191.5 153.8 191.4 152.15 191.35 151.5 192.35 150.95 193.15 151.35 194.15 152.65 197.3 151.65 197.85 151.05 198.2 150.6 197.65 150.15 197.1 150.25 196.35 150.45 193.15 148 192.6 146.45 192.25 146 193.4 145.65 194.5 146.4 195.7 147.1 196.8 147.15 197.7 147.25 198.6 146.7 198.8 146.2 198.95 145.9 198.25 145.8 197.95 145.5 196.7 145.35 195.8 144.7 195.35 144.05 194.85 143.05 195.05 142.05 195.2 141.8 196.25 141.6 197.3 142.5 197.9 143.45 198.6 143.8 199.4 144.2 200.25 143.5 200.55 143 200.75 141.95 199.6 140.8 198.35 140.05 198.35 138.8 198.4 138.5 199.25 138.2 200.15 139.75 201.2 140.9 202 142.1 201.9 142.8 201.85 142.8 202.4 142.8 203.05 141.95 205.45 141.5 208.35 143.65 212.2 145.15 214.8 146.5 217.95 146.95 219.05 147.75 221.35 148.55 223.4 149.45 224.55 151.55 227.25 155.35 227.5 158.9 227.7 161.95 225.85 164.1 224.5 164.6 222.45 164.9 221.2 164.55 219.9 164.45 219.5 163.6 217.5 162.95 215.8 162.7 213.95 162.5 212.2 163.1 209.6 163.25 209 164.85 205.4 166 202.75 165.55 201.1 165.35 200.3 164.35 199.55 163.45 198.8 162.45 198.45 161.6 198.1 161.75 197.65 161.85 197.3 162.5 197 164.2 196.25 164.55 196.05 166.1 195.1 166.25 193.85 166.4 192.45 165.55 191.6 Z"/>
</g>

<g id="gfnf56588_0_Layer0_0_FILL">
<path fill="#1E1E1E" stroke="none" d="
M 13.7 -1.25
Q 13.45 -0.65 13.35 -0.05 13.25 0.6 13.25 1.3 13.25 2 13.35 2.65 13.4 3.25 13.6 3.85 14 5.05 14.85 5.9 15.2 6.3 15.65 6.65 16.05 7 16.6 7.2 17.1 7.45 17.65 7.55 18.25 7.65 18.85 7.65 19.5 7.65 20 7.6 20.55 7.5 21.05 7.25 21.5 7.05 21.9 6.75 22.3 6.5 22.65 6.15
L 22.65 7.25
Q 22.65 7.95 22.45 8.4 22.2 8.9 21.8 9.25 21.35 9.6 20.8 9.75 20.25 9.9 19.6 9.9 19.35 9.9 19.15 9.9 18.9 9.85 18.65 9.8 18.4 9.75 18.15 9.7 17.95 9.6 17.8 9.55 17.3 9.35 17.1 9.15 17 9.05 16.95 8.95 16.95 8.85 16.95 8.75 16.8 8.55 16.65 8.4 16.5 8.25 16.3 8.15 16.1 8.1 15.9 8.05 15.7 8 15.5 8 15.35 8 15.2 8 15.05 8.05 15 8.1 14.9 8.1 14.8 8.1 14.7 8.15 14.65 8.2 14.55 8.25 14.5 8.35 14.45 8.45 14.35 8.55 14.3 8.65 14.25 8.75 14.2 8.85 14.2 8.95 14.15 9.05 14.15 9.15 14.15 9.25 14.15 9.3 14.15 9.5 14.15 9.65 14.2 9.75 14.3 9.9 14.6 10.45 15.1 10.95 15.35 11.2 15.6 11.4 15.85 11.65 16.15 11.8 16.5 12 16.9 12.15 17.3 12.3 17.7 12.4 18.55 12.65 19.6 12.65 20.1 12.65 20.6 12.55 21.15 12.45 21.65 12.35 22.15 12.15 22.65 11.95 23.15 11.7 23.65 11.4 24.15 11.1 24.55 10.65 24.9 10.2 25.15 9.7 25.4 9.15 25.5 8.45 25.6 7.8 25.6 7 25.6 5.6 25.6 4.2 25.55 2.85 25.55 1.45 25.55 0.1 25.55 -1.3 25.55 -2.7 25.55 -4.1 25.4 -4.6 25 -4.9 24.8 -5.1 24.6 -5.15 24.4 -5.25 24.2 -5.25 23.8 -5.25 23.5 -5.1 23.2 -5 23 -4.75 22.65 -4.2 22.65 -3.5 21.95 -4.25 21 -4.6 20.05 -4.95 18.85 -4.95 18.3 -4.95 17.75 -4.85 17.25 -4.75 16.75 -4.5 16.25 -4.3 15.8 -3.95 15.35 -3.6 15 -3.2 14.55 -2.8 14.2 -2.3 13.9 -1.8 13.7 -1.25
M 17.05 -1.4
Q 17.5 -1.9 18.1 -2.15 18.65 -2.4 19.45 -2.4 20.2 -2.4 20.85 -2.2 21.45 -1.95 21.9 -1.45 22.35 -0.95 22.6 -0.25 22.8 0.4 22.8 1.3 22.8 3.05 21.9 4.05 21.45 4.55 20.85 4.85 20.2 5.1 19.4 5.1 17.95 5.1 17.05 4.05 16.15 3.05 16.15 1.3 16.15 -0.35 17.05 -1.4
M 8.15 -9.5
Q 7.95 -9.55 7.75 -9.55 7.45 -9.55 7.2 -9.5 7 -9.45 6.9 -9.25 6.8 -9.1 6.7 -8.95 6.6 -8.75 6.55 -8.55 6.45 -8.35 6.35 -8.1 6.3 -7.9 6.25 -7.65 6.15 -7.45 6.1 -7.25 6 -7.1 5.9 -6.95 5.7 -6.85 5.45 -6.75 5.25 -6.65 5 -6.6 4.75 -6.55 4.45 -6.5 4.2 -6.5 3.95 -6.5 3.6 -6.45 3.4 -6.35 3.15 -6.25 3 -6.05 2.8 -5.85 2.75 -5.65 2.65 -5.4 2.65 -5.15 2.65 -4.9 2.75 -4.65 2.8 -4.45 2.95 -4.25 3.1 -4 3.3 -3.9 3.5 -3.8 3.85 -3.8
L 6.05 -3.8
Q 6.05 -2.4 6.05 -1 6.1 0.35 6.1 1.75 6.1 4.5 6.1 7.25 6.1 7.55 6.2 7.75 6.35 7.95 6.55 8.15 6.8 8.3 7.05 8.4 7.35 8.5 7.65 8.5 7.75 8.5 7.85 8.5 7.95 8.45 8.1 8.4 8.15 8.35 8.3 8.3 8.4 8.25 8.5 8.15 8.65 8.1 8.75 7.95 8.9 7.85 8.95 7.75 9.05 7.65 9.05 7.55 9.1 7.4 9.1 7.25
L 9.1 6.2
Q 9.1 4.35 9.1 2.5 9.1 0.7 9.1 -1.15 9.05 -2.9 9.05 -4.75 9.05 -6.55 9.05 -8.4 9.05 -8.85 8.6 -9.2 8.35 -9.4 8.15 -9.5
M -3 -9.45
Q -3.3 -9.55 -3.55 -9.45 -3.9 -9.35 -4.15 -9.2 -4.4 -9 -4.6 -8.75
L -4.8 -8.45
Q -5.2 -7.8 -5.65 -7.1 -6.05 -6.4 -6.5 -5.65 -6.95 -4.85 -7.4 -4.1 -7.85 -3.35 -8.35 -2.6 -9.3 -1.1 -10.2 0.35 -10.7 1.05 -11.2 1.8 -11.65 2.5 -12.15 3.3
L -12.25 3.6 -12.3 3.6 -12.3 3.65
Q -12.4 3.8 -12.45 3.95 -12.5 4.05 -12.55 4.2 -12.55 4.4 -12.55 4.55 -12.55 4.7 -12.5 4.85 -12.45 5 -12.4 5.15 -12.35 5.3 -12.3 5.45 -12.25 5.6 -12.15 5.7 -12.05 5.8 -11.9 5.9 -11.8 5.95 -11.65 6 -11.55 6.05 -11.35 6.1 -11.25 6.1 -11.1 6.1 -11 6.15 -10.8 6.1
L -4.5 6.1 -4.5 7.25
Q -4.5 7.7 -4.4 8 -4.35 8.25 -4.1 8.4 -3.75 8.7 -3 8.7 -2.5 8.7 -2 8.4 -1.6 8.15 -1.6 7.25
L -1.6 6.1 -0.75 6.1
Q -0.35 6.1 -0.05 6 0.2 5.9 0.3 5.65 0.45 5.45 0.5 5.2 0.55 4.95 0.55 4.6 0.55 4.35 0.5 4.1 0.45 3.85 0.3 3.6 0.2 3.4 -0.05 3.25 -0.35 3.15 -0.75 3.15
L -1.6 3.15 -1.65 -7.9
Q -1.65 -8.05 -1.7 -8.25 -1.75 -8.4 -1.8 -8.6 -1.9 -8.75 -2.05 -8.9 -2.2 -9.05 -2.4 -9.2 -2.7 -9.4 -3 -9.45
M -6.65 -0.4
Q -6.3 -0.85 -6 -1.3 -5.7 -1.75 -5.45 -2.2 -4.9 -3 -4.6 -3.65
L -4.6 3.2 -8.95 3.2
Q -8.65 2.85 -8.35 2.4 -8.05 1.95 -7.75 1.45 -7.5 1 -7.2 0.55 -6.9 0.05 -6.65 -0.4
M -20.9 -9.65
Q -21.45 -9.55 -21.9 -9.3 -22.45 -9.05 -22.9 -8.75 -23.35 -8.45 -23.7 -8.05 -24.4 -7.3 -24.75 -6.4 -24.95 -5.95 -25.05 -5.5 -25.15 -5.05 -25.15 -4.6 -25.15 -4.35 -25.05 -4.15 -24.95 -3.9 -24.75 -3.8 -24.55 -3.6 -24.35 -3.55 -24.15 -3.45 -23.9 -3.45 -23.6 -3.45 -23.3 -3.55 -23 -3.7 -22.75 -3.9 -22.5 -4.15 -22.35 -4.45 -22.25 -4.7 -22.25 -5.05 -22.25 -5.2 -22.2 -5.35 -22.15 -5.5 -22 -5.7 -21.95 -5.9 -21.85 -6.05 -21.7 -6.2 -21.55 -6.35 -21.35 -6.45 -21.1 -6.6 -20.9 -6.7 -20.65 -6.85 -20.4 -6.9 -20.2 -6.95 -19.95 -7 -19.75 -7 -19.4 -7 -19.1 -6.95 -18.75 -6.9 -18.5 -6.8 -18.25 -6.65 -18.05 -6.5 -17.85 -6.35 -17.65 -6.15 -17.55 -5.95 -17.4 -5.75 -17.25 -5.5 -17.15 -5.3 -17.05 -5.05 -17 -4.85 -16.95 -4.6 -16.95 -4.35 -16.95 -4.15 -17 -3.95 -17.05 -3.75 -17.15 -3.5 -17.25 -3.3 -17.35 -3.05 -17.5 -2.85 -17.6 -2.65 -17.7 -2.4 -17.85 -2.2 -18 -2 -18.2 -1.8 -18.4 -1.65 -18.55 -1.5 -18.7 -1.35 -18.8 -1.3 -19.15 -1.05 -19.5 -0.8 -19.85 -0.55 -20.15 -0.3 -20.5 -0.05 -20.8 0.2 -21.15 0.45 -21.45 0.7 -21.9 1.05 -22.3 1.4 -22.65 1.7 -23 2 -23.35 2.3 -23.6 2.65 -23.85 2.95 -24 3.25 -24.3 3.55 -24.45 3.9 -24.65 4.25 -24.75 4.55 -24.85 4.95 -24.95 5.35 -25.05 5.75 -25.05 6.2 -25.05 6.3 -25.1 6.35 -25.1 6.4 -25.1 6.5 -25.15 6.55 -25.15 6.65 -25.2 6.7 -25.15 6.75
L -25.15 6.9
Q -25.2 6.95 -25.2 7.05 -25.2 7.1 -25.2 7.2 -25.2 7.6 -25.1 7.85 -24.95 8.1 -24.7 8.25 -24.45 8.4 -24.2 8.5 -23.9 8.6 -23.6 8.6
L -15.3 8.6
Q -13.8 8.6 -13.8 7.2 -13.8 6.85 -13.9 6.6 -14 6.4 -14.2 6.25 -14.4 6.15 -14.7 6.05 -15.05 6 -15.45 6
L -21.85 6
Q -21.85 5.6 -21.75 5.25 -21.65 4.85 -21.4 4.5 -21.2 4.2 -20.85 3.9 -20.6 3.55 -20.25 3.3 -19.9 3 -19.6 2.75 -19.25 2.5 -18.85 2.25 -18.45 2 -18.15 1.8 -17.85 1.6 -17.65 1.4 -17.25 1.15 -16.9 0.9 -16.55 0.65 -16.2 0.35 -15.95 0 -15.65 -0.3 -15.4 -0.6 -15.2 -1 -14.95 -1.3 -14.75 -1.7 -14.55 -2.05 -14.45 -2.5 -14.3 -2.9 -14.25 -3.4 -14.2 -3.9 -14.2 -4.4 -14.2 -4.9 -14.3 -5.4 -14.4 -5.85 -14.55 -6.35 -14.75 -6.85 -15.05 -7.25 -15.3 -7.7 -15.65 -8.05 -16.1 -8.45 -16.55 -8.75 -17 -9.05 -17.5 -9.3 -18.05 -9.55 -18.6 -9.65 -19.15 -9.75 -19.75 -9.75 -20.35 -9.75 -20.9 -9.65 Z"/>
</g>

<g id="__________fnfmf343434_copy_____4_0_Layer1_0_FILL">
<path fill="#FFFFFF" stroke="none" d="
M 70 -15
Q 70 -30 55 -30
L -55 -30
Q -70 -30 -70 -15
L -70 15.05
Q -70 30.05 -55 30.05
L 55 30.05
Q 70 30.05 70 15.05
L 70 -15 Z"/>
</g>

<g id="__________fnfmf343434_copy_2_____2_0_Layer1_0_FILL">
<path fill="#FFFFFF" stroke="none" d="
M 70 -15
Q 70 -30 55 -30
L -55 -30
Q -70 -30 -70 -15
L -70 15.05
Q -70 30.05 -55 30.05
L 55 30.05
Q 70 30.05 70 15.05
L 70 -15 Z"/>
</g>

<g id="__________fnfmf343434_copy_3_____5_1_Layer1_0_FILL">
<path fill="#FFFFFF" stroke="none" d="
M 50 -15
Q 50 -30 35 -30
L -8.95 -30 -35 -30
Q -50 -30 -50 -15
L -50 15.05
Q -50 30.05 -35 30.05
L -8.95 30.05 35 30.05
Q 50 30.05 50 15.05
L 50 -15 Z"/>
</g>

<g id="dfbdnd45_0_Layer0_1_FILL">
<path fill="#EC008C" stroke="none" d="
M 527 629.7
L 534.15 617.3 519.8 617.3 527 629.7 Z"/>
</g>

<g id="fdbd477_0_Layer0_1_FILL">
<path fill="#00AEEF" stroke="none" d="
M 527 629.7
L 534.15 617.3 519.8 617.3 527 629.7 Z"/>
</g>

<g id="Layer0_18_FILL">
<path fill="#EC008C" stroke="none" d="
M 527 629.7
L 534.15 617.3 519.8 617.3 527 629.7 Z"/>
</g>


<path id="__________fnfmf343434_copy_____4_0_Layer1_0_1_STROKES" stroke="#DBDBDB" stroke-width="3" stroke-linejoin="round" stroke-linecap="round" fill="none" d="
M -55 -30
L 55 -30
Q 70 -30 70 -15
L 70 15.05
Q 70 30.05 55 30.05
L -55 30.05
Q -70 30.05 -70 15.05
L -70 -15
Q -70 -30 -55 -30 Z"/>

<path id="__________fnfmf343434_copy_2_____2_0_Layer1_0_1_STROKES" stroke="#DBDBDB" stroke-width="3" stroke-linejoin="round" stroke-linecap="round" fill="none" d="
M -55 -30
L 55 -30
Q 70 -30 70 -15
L 70 15.05
Q 70 30.05 55 30.05
L -55 30.05
Q -70 30.05 -70 15.05
L -70 -15
Q -70 -30 -55 -30 Z"/>

<path id="Layer0_14_1_STROKES" stroke="#EC008C" stroke-width="2" stroke-linejoin="miter" stroke-linecap="butt" stroke-miterlimit="3" fill="none" d="
M 979.3 731.65
L 979.3 814.2 722.2 814.2
M 654.2 814.2
L 498.15 814.2 498.15 725.15"/>

<path id="__________fnfmf343434_copy_3_____5_1_Layer1_0_1_STROKES" stroke="#DBDBDB" stroke-width="3" stroke-linejoin="round" stroke-linecap="round" fill="none" d="
M -35 -30
L -8.95 -30 35 -30
Q 50 -30 50 -15
L 50 15.05
Q 50 30.05 35 30.05
L -8.95 30.05 -35 30.05
Q -50 30.05 -50 15.05
L -50 -15
Q -50 -30 -35 -30 Z"/>

<path id="dfbdnd45_0_Layer0_0_1_STROKES" stroke="#EC008C" stroke-width="2" stroke-linejoin="miter" stroke-linecap="butt" stroke-miterlimit="3" fill="none" d="
M -180.6 -43.7
L -180.6 14.85 173.45 14.85 173.45 36.35"/>

<path id="fdbd477_0_Layer0_0_1_STROKES" stroke="#00AEEF" stroke-width="2" stroke-linejoin="miter" stroke-linecap="butt" stroke-miterlimit="3" fill="none" d="
M 0 -29.85
L 0 19.9"/>
</defs>



<g transform="matrix( 1, 0, 0, 1, 104.95,148.7) ">
<g transform="matrix( 1, 0, 0, 1, -367,-452) ">
<use xlink:href="#gnff56869_0_Layer2_0_FILL"/>
</g>

<g transform="matrix( 1, 0, 0, 1, -2,-50.9) ">
<g transform="matrix( 2.799407958984375, 0, 0, 2.79986572265625, -426.5,-587.65) ">
<use xlink:href="#gfnf56588_0_Layer1_0_FILL"/>
</g>

</g>

<g transform="matrix( 1, 0, 0, 1, -2,59.1) ">
<g transform="matrix( 2.799407958984375, 0, 0, 2.79986572265625, -426.5,-587.65) ">
<use xlink:href="#gfnf56588_0_Layer1_0_FILL"/>
</g>

</g>
</g>

<g transform="matrix( 1, 0, 0, 1, 214.95,148.7) ">
<g transform="matrix( 1, 0, 0, 1, -367,-452) ">
<use xlink:href="#gnff56869_0_Layer2_0_FILL"/>
</g>

<g transform="matrix( 1, 0, 0, 1, -2,-50.9) ">
<g transform="matrix( 2.799407958984375, 0, 0, 2.79986572265625, -426.5,-587.65) ">
<use xlink:href="#gfnf56588_0_Layer1_0_FILL"/>
</g>

</g>

<g transform="matrix( 1, 0, 0, 1, -2,59.1) ">
<g transform="matrix( 2.799407958984375, 0, 0, 2.79986572265625, -426.5,-587.65) ">
<use xlink:href="#gfnf56588_0_Layer1_0_FILL"/>
</g>

</g>
</g>

<g transform="matrix( 1, 0, 0, 1, 324.95,148.7) ">
<g transform="matrix( 1, 0, 0, 1, -367,-452) ">
<use xlink:href="#gnff56869_0_Layer2_0_FILL"/>
</g>

<g transform="matrix( 1, 0, 0, 1, -2,-50.9) ">
<g transform="matrix( 2.799407958984375, 0, 0, 2.79986572265625, -426.5,-587.65) ">
<use xlink:href="#gfnf56588_0_Layer1_0_FILL"/>
</g>

</g>

<g transform="matrix( 1, 0, 0, 1, -2,59.1) ">
<g transform="matrix( 2.799407958984375, 0, 0, 2.79986572265625, -426.5,-587.65) ">
<use xlink:href="#gfnf56588_0_Layer1_0_FILL"/>
</g>

</g>
</g>

<g transform="matrix( 1, 0, 0, 1, 434.95,148.7) ">
<g transform="matrix( 1, 0, 0, 1, -367,-452) ">
<use xlink:href="#gnff56869_0_Layer2_0_FILL"/>
</g>

<g transform="matrix( 1, 0, 0, 1, -2,-50.9) ">
<g transform="matrix( 2.799407958984375, 0, 0, 2.79986572265625, -426.5,-587.65) ">
<use xlink:href="#gfnf56588_0_Layer1_0_FILL"/>
</g>

</g>

<g transform="matrix( 1, 0, 0, 1, -2,59.1) ">
<g transform="matrix( 2.799407958984375, 0, 0, 2.79986572265625, -426.5,-587.65) ">
<use xlink:href="#gfnf56588_0_Layer1_0_FILL"/>
</g>

</g>
</g>

<g transform="matrix( 1, 0, 0, 1, 544.95,148.7) ">
<g transform="matrix( 1, 0, 0, 1, -367,-452) ">
<use xlink:href="#gnff56869_0_Layer2_0_FILL"/>
</g>

<g transform="matrix( 1, 0, 0, 1, -2,-50.9) ">
<g transform="matrix( 2.799407958984375, 0, 0, 2.79986572265625, -426.5,-587.65) ">
<use xlink:href="#gfnf56588_0_Layer1_0_FILL"/>
</g>

</g>

<g transform="matrix( 1, 0, 0, 1, -2,59.1) ">
<g transform="matrix( 2.799407958984375, 0, 0, 2.79986572265625, -426.5,-587.65) ">
<use xlink:href="#gfnf56588_0_Layer1_0_FILL"/>
</g>

</g>
</g>

<g transform="matrix( 1, 0, 0, 1, 654.95,148.7) ">
<g transform="matrix( 1, 0, 0, 1, -367,-452) ">
<use xlink:href="#gnff56869_0_Layer2_0_FILL"/>
</g>

<g transform="matrix( 1, 0, 0, 1, -2,-50.9) ">
<g transform="matrix( 2.799407958984375, 0, 0, 2.79986572265625, -426.5,-587.65) ">
<use xlink:href="#gfnf56588_0_Layer1_0_FILL"/>
</g>

</g>

<g transform="matrix( 1, 0, 0, 1, -2,59.1) ">
<g transform="matrix( 2.799407958984375, 0, 0, 2.79986572265625, -426.5,-587.65) ">
<use xlink:href="#gfnf56588_0_Layer1_0_FILL"/>
</g>

</g>
</g>

<g transform="matrix( 1, 0, 0, 1, 764.95,148.7) ">
<g transform="matrix( 1, 0, 0, 1, -367,-452) ">
<use xlink:href="#gnff56869_0_Layer2_0_FILL"/>
</g>

<g transform="matrix( 1, 0, 0, 1, -2,-50.9) ">
<g transform="matrix( 2.799407958984375, 0, 0, 2.79986572265625, -426.5,-587.65) ">
<use xlink:href="#gfnf56588_0_Layer1_0_FILL"/>
</g>

</g>

<g transform="matrix( 1, 0, 0, 1, -2,59.1) ">
<g transform="matrix( 2.799407958984375, 0, 0, 2.79986572265625, -426.5,-587.65) ">
<use xlink:href="#gfnf56588_0_Layer1_0_FILL"/>
</g>

</g>
</g>

<g transform="matrix( 1, 0, 0, 1, 874.95,148.7) ">
<g transform="matrix( 1, 0, 0, 1, -367,-452) ">
<use xlink:href="#gnff56869_0_Layer2_0_FILL"/>
</g>

<g transform="matrix( 1, 0, 0, 1, -2,-50.9) ">
<g transform="matrix( 2.799407958984375, 0, 0, 2.79986572265625, -426.5,-587.65) ">
<use xlink:href="#gfnf56588_0_Layer1_0_FILL"/>
</g>

</g>

<g transform="matrix( 1, 0, 0, 1, -2,59.1) ">
<g transform="matrix( 2.799407958984375, 0, 0, 2.79986572265625, -426.5,-587.65) ">
<use xlink:href="#gfnf56588_0_Layer1_0_FILL"/>
</g>

</g>
</g>

<g transform="matrix( 1, 0, 0, 1, 984.95,148.7) ">
<g transform="matrix( 1, 0, 0, 1, -367,-452) ">
<use xlink:href="#gnff56869_0_Layer2_0_FILL"/>
</g>

<g transform="matrix( 1, 0, 0, 1, -2,-50.9) ">
<g transform="matrix( 2.799407958984375, 0, 0, 2.79986572265625, -426.5,-587.65) ">
<use xlink:href="#gfnf56588_0_Layer1_0_FILL"/>
</g>

</g>

<g transform="matrix( 1, 0, 0, 1, -2,59.1) ">
<g transform="matrix( 2.799407958984375, 0, 0, 2.79986572265625, -426.5,-587.65) ">
<use xlink:href="#gfnf56588_0_Layer1_0_FILL"/>
</g>

</g>
</g>

<g transform="matrix( 1, 0, 0, 1, 1094.95,148.7) ">
<g transform="matrix( 1, 0, 0, 1, -367,-452) ">
<use xlink:href="#gnff56869_0_Layer2_0_FILL"/>
</g>

<g transform="matrix( 1, 0, 0, 1, -2,-50.9) ">
<g transform="matrix( 2.799407958984375, 0, 0, 2.79986572265625, -426.5,-587.65) ">
<use xlink:href="#gfnf56588_0_Layer1_0_FILL"/>
</g>

</g>

<g transform="matrix( 1, 0, 0, 1, -2,59.1) ">
<g transform="matrix( 2.799407958984375, 0, 0, 2.79986572265625, -426.5,-587.65) ">
<use xlink:href="#gfnf56588_0_Layer1_0_FILL"/>
</g>

</g>
</g>

</svg>
