<?xml version="1.0" encoding="utf-8"?>
<!-- Generator: Adobe Illustrator 23.0.0, SVG Export Plug-In . SVG Version: 6.00 Build 0)  -->
<svg version="1.1" id="레이어_1" xmlns="http://www.w3.org/2000/svg" xmlns:xlink="http://www.w3.org/1999/xlink" x="0px"
	 y="0px" width="25.5px" height="78.4px" viewBox="0 0 25.5 78.4" style="enable-background:new 0 0 25.5 78.4;"
	 xml:space="preserve">
<g>
	<path d="M10.8,5.9c2.1,2,3.8,4.5,5.2,7.5c1.4,3,2.6,6.2,3.5,9.6c0.9,3.4,1.5,6.9,1.9,10.3S22,40,22,43c0,2.9-0.3,6-1,9.1
		c-0.7,3.2-1.7,6.3-3,9.3c-1.3,3-3,5.8-5.1,8.4c-2,2.6-4.4,4.8-7.2,6.6l-2.3-3.1c1.9-1.4,3.6-3.2,5.2-5.4c1.5-2.2,2.8-4.7,3.8-7.3
		c1-2.7,1.8-5.5,2.3-8.6c0.5-3,0.8-6,0.8-9c0-1.9-0.1-4-0.3-6.3c-0.2-2.3-0.5-4.7-0.9-7.2c-0.4-2.5-1-4.9-1.6-7.4
		c-0.6-2.4-1.4-4.8-2.3-6.9c-0.9-2.2-1.9-4.1-3-5.8c-1.1-1.7-2.4-3-3.8-4L5.4,2"/>
</g>
</svg>
